<svg xmlns="http://www.w3.org/2000/svg" viewBox="0 0 375.95 69.863" width="751.901" height="139.726">
  <path d="M10.635 11.984L366.34 10.34l.134 48.266-356.21 1.329" stroke-width="0" fill="#4c6ef5"/>
  <path d="M9.334 10.068c142.263-1.358 285.428-1.981 356.76-.077m-355.952-.43c116.027-1.235 232.594-1.944 356.311-.148m.096-.089c-2.166 11.045-1.613 22.183 1.105 49.205m-.831-47.773c.243 11.712-.143 22.936-1.365 48.616m.43-.74c-109.389 1.75-215.988 3.452-355.71.787m355.22.283c-74.468-1.893-148.425-1.419-355.453-.4m1.798.482c-3.182-14.518-2.96-29.21-1.898-49.135m-.776 48.564c1.226-12.195 1.03-24.065 1.426-48.531" stroke="#000" fill="none"/>
</svg>
