<svg version="1.1" xmlns="http://www.w3.org/2000/svg" viewBox="0 0 369.65985107421875 49.887237548828125" width="739.3197021484375" height="99.77447509765625">
  <!-- svg-source:excalidraw -->
  
  <defs>
    <style>
      @font-face {
        font-family: "Virgil";
        src: url("https://excalidraw.com/Virgil.woff2");
      }
      @font-face {
        font-family: "Cascadia";
        src: url("https://excalidraw.com/Cascadia.woff2");
      }
    </style>
  </defs>
  <g transform="translate(10 10) rotate(0 174.82992553710938 14.943618774414062)"><path d="M0.6351221967488527 1.98355926387012 L350.0490773487836 0.3414995204657316 L350.1832034755498 28.631002200767398 L0.26351376064121723 29.95997746102512" stroke="none" stroke-width="0" fill="#fab005cc"></path><path d="M-0.6771085259336413 0.06947042780013768 C139.071423551531 -1.288090291825704, 279.7374196261565 -1.9214306551747073, 349.80669011715474 -0.008941095940178613 M0.14445813747921674 -0.44593940088506767 C114.10949245849619 -1.6640309925242873, 228.62338957084876 -2.385333068949423, 350.17110767526464 -0.59680010134484 M350.2588716875762 -0.6759726237505674 C347.96922553486127 5.812097194966172, 348.52243060774106 12.392530371226856, 351.3633721601218 28.553575174883008 M350.53235746268183 0.7558775013312697 C350.71409647658714 7.689805783733547, 350.3287574251021 14.13680226529354, 349.1670812750235 29.39626059588045 M349.5973484050941 28.636067857203244 C242.11476174997273 30.384067954799335, 137.4684059330797 32.11431305374168, 0.18030533114400824 29.435429330645146 M349.0992010677619 29.723763337200612 C275.95706772956845 27.825376410972346, 203.33509072188022 28.30728027891089, -0.055965984209969996 29.31624062221792 M1.7426595818251371 29.80791183002293 C-1.3159559004180366 21.22321200891149, -1.0929624669425422 12.462931209406491, -0.1551936138421297 0.6490662265568972 M-0.9305514609441161 29.23766631539911 C0.39606958458538627 22.111829128741036, 0.19948747584934806 15.311743246709426, 0.49505255464464426 0.6818652516230941" stroke="#000000" stroke-width="1" fill="none"></path></g></svg>