<svg xmlns="http://www.w3.org/2000/svg" viewBox="0 0 298.677 147.837" width="597.354" height="295.674">
  <g fill="none">
    <path d="M10 10s0 0 0 0m0 0s0 0 0 0m-.793 6.526c3.123-2.024 4.436-4.226 5.544-5.916m-4.725 6.156c1.286-3.023 3.781-4.829 4.827-6.312M10.43 21.196c3.955-3.445 7.194-6.788 11.241-10.535M10.248 21.64c2.252-1.775 4.997-5.254 10.396-11.074M9.833 28.949c5.908-8.237 12.361-16.345 17.06-18.806m-16.478 18.92c3.47-5.06 6.174-8.702 15.293-19.565M9.388 34.825C20.055 25.175 25.376 14.34 33.13 9.452M9.802 35.016c5.081-6.263 9.099-11.31 21.562-24.645M11.18 41.895c5.745-8.824 15.38-18.667 23.2-32.394M9.704 41.236c6.503-9.263 13.517-15.538 27.346-30.324M8.69 47.352c10.073-6.533 15.562-17.077 34.702-36.04M9.384 46.926c11.742-12.272 21.812-25.275 33.028-36.18M8.798 50.69c15.2-15.116 30.712-28.746 37.755-42.34M9.19 52.858c14.122-14.944 25.17-29.183 37.93-43.33M9.668 58.094C24.997 42.982 38.454 25.15 53.01 10.612M9.651 59.574c9.323-11.219 20.162-23.115 43.533-48.743M9.228 63.28c11.825-9.735 21.504-24.168 48.067-54.49M11.14 64.04C22.211 51.47 33.206 38.8 56.765 10.13M11.795 71.66C24.006 56.098 39.8 40.069 64.455 10.361M9.672 71.625c19.93-20.869 37.971-43.171 52.812-60.921M8.538 77.179c15.478-15.66 30.081-32.39 60.137-65.44m-58.1 65.007C26.709 59.422 43.248 40.138 67.24 9.6M11.391 82.712C33.188 57.794 55.634 28.327 74.395 10.38M9.575 83.082C32.057 56.286 55.423 30.18 74.518 9.542M10.954 88.447C30.51 64.326 52.115 41.661 78.95 8.923M9.893 89.765c17.81-20.54 34.4-38.28 68.311-78.86M8.964 96.73c15.087-20.882 30.014-35.938 76.714-85.43M9.898 94.042C36.881 64.322 62.97 33.05 84.898 9.612M8.92 100.226c23.783-24.79 49.334-54.36 81.642-89.343m-79.639 90.363C30.736 79.27 50.46 55.393 89.727 11.113M8.552 106.76c25.543-25.588 47.271-51.444 86.79-96.187m-86.42 96.879c19.064-23.49 38.994-45.81 85.727-97.172M9.725 111.71C42.29 73.845 74.766 37.324 98.145 10.97M9.563 113.676C37.368 81.17 67.248 46.825 100.279 9.385M8.35 118.393c24.005-22.682 43.69-48.684 98.263-107.94m-97.3 109.632C35.807 88.6 61.357 58.783 106.194 10m-95.35 116.908C36.67 92.692 64.81 62.93 112.52 9.35M11.11 124.64c37.701-40.864 75.474-84.2 99.632-113.666M8.767 130.299c46.04-48.043 85.287-94.851 108.136-120.285M10.165 131.077c21.937-24.93 43.092-49.363 105.2-120.753M11.938 138.642C38.604 105.013 66.452 73.97 120.689 8.999M10.275 136.809C38.697 105.596 66.826 72.496 120.4 9.225M16.313 137.169C53.15 93.717 91.243 51.95 125.158 9.893M14.89 138.86C52.183 96.608 88.907 53.452 126.745 10.65M20.703 137.224C61.173 93.775 100.465 45.336 133.85 11.71M21.012 138.633C55.224 97.326 89.848 56.678 130.945 9.58M24.431 138.54C58.105 102.561 87.19 67.4 138.478 9.277M26.052 138c43.33-51.08 86.203-101.605 110.24-126.794M31.99 139.667c32.924-36.314 64.307-74.032 111.396-129.584M31.657 137.54c21.475-26.682 47.124-54.12 110.82-127.965M37.502 138.806c24.465-31.06 50.834-59.905 110.679-128.375M37.377 137.196C71.312 96.877 107.308 56.586 147.402 9.58M43.365 137.984c40.886-50.106 84.986-98.212 109.497-126.45M42.478 138.244C77.12 98.77 111.344 57.841 153.498 10.84M45.35 139.13c37.998-41.737 73.844-84.228 111.083-127.457M48.246 137.201C77.782 103.4 107.559 70.56 157.53 9.693M51.247 136.247c29.922-27.73 56.495-60.946 110.79-125.956M51.81 137.793c33.43-36.139 66.602-74.913 111.11-128.702m-104.94 130.4c26.184-31.56 52.671-62.745 109.603-127.35m-109.14 124.72c42.264-47.675 84.2-96.43 111.1-126.292m-107.31 128.77c29.543-35.972 57.225-68.484 112.625-127.946M63.387 138.331c38.848-43.348 77.977-88.333 110.67-128.182M69.582 138.678c44.762-48.567 88.137-99.041 110.585-126.899M68.16 137.118c25.617-29.414 53.327-59.699 111.549-126.8M73.112 136.958c39.01-38.73 74.933-82.42 110.34-126.265M74.36 139.097c40.53-47.827 79.846-93.11 110.276-129.174M78.543 138.293c36.235-45.629 74.55-85.925 112.37-126.947M79.996 137.006c22.042-25.715 45.115-51.628 109.707-126.858M82.86 139.61c37.736-45.137 76.059-84.799 113.282-128.754M83.278 138.42c38.794-42.976 76.949-85.4 111.508-128.006M91.43 138.75c38.935-50.315 82.16-99.37 107.305-130.338M88.953 137.653c31.33-35.227 61.022-68.527 111.656-127.295M96.639 138.619c20.672-30.423 45.108-54.965 108.793-129.258M94.098 137.729c44.067-49.794 87.33-99.987 112.943-128.006M99.001 139.28c40.862-48.274 77.952-92.832 113.73-129.916m-112.287 128.92c26.997-30.94 52.092-61.732 110.473-127.942M105.8 138.117c40.363-45.913 83.326-94.902 110.218-127.621M106.184 137.54c38.539-46.868 77.384-92.96 110.16-127.504M112.2 137.921C134.415 106.6 162.904 80.046 220.19 9.396M110.286 138.211C142.887 100.6 174.087 62.651 222.52 10.59M115.882 139.05c23.096-27.414 48.702-57.979 112.9-129.686M116.307 137.468c40.251-45.58 80.865-91.892 111.736-127.824m-105.883 129.88c38.665-49.602 76.432-93.836 108.43-131.007m-107.888 128.33c26.7-32.611 54.318-66.121 110.02-126.166M126.61 139.179c23.67-27.354 49.794-57.702 110.184-131.299M126.64 138.218c27.312-31.132 56.176-63.892 111.25-129.298M131.54 136.513c41.632-47.03 84.036-91.999 112.05-124.965M131.662 138.447C170.9 92.886 211.472 47.193 242.225 9.29M135.897 137.074c34.743-35.971 68.443-75.398 112.756-125.547M136.769 137.59c41.44-47.131 80.906-92.554 110.624-126.497M141.164 137.852c30.99-35.148 65.848-71.818 111.88-129.728M141.518 139.1c25.965-28.508 48.992-55.988 111.63-128.911M147.843 136.118c40.235-48.412 84.8-97.112 111.273-125.783M147.682 138.48c42.532-50.053 83.5-97.542 110.748-127.261M154.068 137.588c24.483-30.456 54.535-62.644 108.92-128.898M153.054 137.254c30.266-33.21 59.953-68.459 111.956-127.014M156.737 136.508c32.601-32.35 63.448-66.584 112.423-125.097M157.773 136.874c29.396-30.685 58.213-62.823 111.544-126.162m-107.183 129.11c37.905-44.015 71.958-82.498 113.513-131.317M164.12 138.691C207.365 88.33 249.586 37.922 274.737 9.397M171.054 139.253C211.65 88.147 257.492 36.175 280.602 11.921M168.844 137.854c30.687-34.564 60.606-69.763 110.59-127.527M173.432 139.471c39.853-44.525 77.85-91.764 114.006-127.83M174.968 137.289c23.946-27.72 47.981-54.632 111.693-126.577M181.458 138.174c23.991-26.389 46.333-51.725 109.337-125.578m-110.692 125c24.65-29.795 50.283-58.538 109.809-125.931M184.216 138.26c31.899-34.1 60.756-70.157 106.18-119.731M184.258 139.022c25.305-29.399 49.604-57.213 105.7-121.145M188.8 135.905c27.076-26.141 51.484-52.19 99.948-113.112m-98.585 114.575c21.917-26.236 44.668-51.398 99.594-115.135m-94.822 114.499c20.822-25.884 43.473-52.326 93.002-108.887m-92.875 110.11c29.251-32.93 57.423-65.32 95.342-108.846m-90.289 106.784c20.968-21.938 39.61-42.365 89.912-98.344m-88.983 99.984C223.486 111.798 245.84 85.685 288.75 36.5m-82.533 101.738c22.437-25.3 43.254-49.335 84.753-96.666m-84.123 96.677c27.417-32.114 52.941-63.298 83.632-96.035m-77.848 96.182c26.445-34.624 57.783-67.37 77.881-90.627m-78.34 89.78c19.632-21.952 38.468-43.076 77.038-89.466m-74.327 88.86c27.179-27.753 50.333-51.44 73.777-81.914m-71.165 83.127c27.861-32.776 56.324-66.644 72.65-85.542m-68.385 83.87c19.274-19.725 39.749-43.729 66.547-75.05m-65.927 76.53c14.12-17.55 30.147-34.267 67.51-79.003m-63.95 78.862c21.977-25.819 46.033-52.147 61.762-72.718m-60.41 72.917c14.87-14.39 28.141-30.346 62.816-72.437m-57.003 70.458c14.145-13.928 32.366-31.165 57.25-63.457m-56.448 65.838c17.5-22.022 35.508-42.484 56.702-65.975m-54.028 64.222c12.347-13.438 25.005-29.185 54.364-57.434m-52.016 59.053c14.957-18.405 31.356-37.83 51.522-59.061m-48 56.539c11.08-7.923 21.651-20.99 49.336-53.692m-47.389 55.59c16.368-20.5 34.97-41.272 45.19-53.708m-41.4 52.13c17.693-17.373 33.011-34.42 41.271-44.149m-39.953 45.555c15.728-17.672 31.854-37.457 41.187-46.486m-35.573 48.914c7.914-14.097 17.771-26.41 36.148-41.597m-37.02 39.95c13.73-15.63 26.792-30.686 34.555-40.53m-30.47 39.743c10.557-12.976 19.527-24.348 30.824-35.706m-30.632 36.48c6.272-7.744 14.091-15.195 31.893-35.54m-25.833 36.597c8.38-6.812 15.147-14.609 25.03-29.019m-26.388 27.369c10.553-9.94 18.877-19.056 27.371-29.773M268.77 137.1c9.33-6.39 15.876-15.378 21.37-20.951m-20.243 21.167c5.066-6.567 12.507-12.15 20.717-22.05m-14.072 24.578c4.395-7.588 9.677-15.517 13.325-19.798m-15.325 18.573c4.264-6.412 8.518-9.481 15.22-17.76m-8.602 17.06c1.83-3.735 4.164-6.642 8.772-10.15m-9.824 9.807c2.367-2.195 3.784-3.322 9.11-10.235M284.8 138.62c2.23-1.793 4.324-4.701 5.917-6.157m-5.24 5.735c1.326-1.303 2.592-2.885 4.622-5.471" stroke="#4c6ef599" stroke-width=".5"/>
    <path d="M11.486 10.702c69.395 2.66 140.94-.084 277.134-1.777M9.363 10.382c74.481 1.23 147.471.593 279.994.022m.711 1.21c-.822 31.305-1.688 68.222-2.575 125.964m1.828-127.383c-.309 29.823-.749 61.454-.714 127.24m-.505-.339c-97.672 2.042-196.638 2.496-278.756 1.183m279.533.22c-101.348-.959-202.878-1.588-278.658-1.396m-1.082-.741c-.152-32.942 1.469-65.415-.109-125.208m1.74 126.405C10.434 96.7 10.576 53.356 9.487 9.21" stroke="#000"/>
  </g>
</svg>
