<svg xmlns="http://www.w3.org/2000/svg" viewBox="0 0 260.641 113.034" width="521.282" height="226.068">
  <g fill="none">
    <path d="M10 10s0 0 0 0m0 0s0 0 0 0m-.473 5.788c1.366-1.922 3.393-2.983 5.847-6.083m-5.522 6.507c1.59-1.435 3.065-4.07 5.363-5.923M9.042 22.125c3.203-2.952 8.507-6.227 10.222-13.285m-9.099 13.552c2.712-2.863 3.883-6.041 11.022-12.149M11.132 26.727c2.652-5.06 9.275-12.719 13.013-17.528M10.092 28.22c3.465-4.932 7.978-9.274 15.596-18M11.139 35.345c4.624-7.287 10.198-16.265 20.793-26.222M10.952 34.47c3.915-5.908 7.517-10.404 20.583-24.33m-20.23 29.78c5.38-8.656 14.522-17.152 24.647-30.603M10.48 41.4c8.808-10.974 16.962-22.481 25.492-31.39M8.596 45.096c8.067-7.394 15.507-17.183 32.07-35.05M8.96 47.845c7.725-9.494 16.36-17.2 33.01-38.326M8.643 53.312c13.062-13.484 23.93-25.776 37.629-43.608M9.669 51.663C23.196 37.299 37.134 21.15 46.525 11.239M9.972 59.889C21.104 45.378 35.76 30.982 54.132 9.594M10.314 59.091c16.39-18.95 31.941-35.774 42.002-48.406M8.775 66.548C24.794 47.722 37.571 31.15 55.72 8.77M10.037 65.558C20.791 52.43 32.454 37.78 57.86 9.445M11.853 72.266C23.508 54.839 37.37 41.881 62.05 8.819M9.56 70.815c11.782-10.93 22.15-23.644 53.598-61.58M9.395 78.805c13.643-16.988 29.34-35.527 59.23-70.1M10.196 77.75C26.3 58.745 41.952 41.662 67.873 11.03M11.197 81.79C31.19 58.974 53.242 29.777 72.865 9.55M9.28 83.733c20.56-24.182 40.027-45.54 63.684-74.608M8.882 87.782C27.662 67.774 48.18 47.256 79.046 9.48M10.612 88.994c21.281-25.827 42.85-49.953 68.244-78.738M10.68 93.81C29.96 72.641 48.85 52.3 83.74 8.4M10.452 94.417c23.697-27.405 48.33-54.912 74.64-84.748M8.366 100.22C30.865 78.31 51.715 54.003 88.75 10.846m-78.07 90.83c25.16-31.469 49.467-60.82 77.81-91.434m-77.823 92.943c26.188-28.334 50.26-54.471 83.885-92.425m-83.136 93.274c23.268-26.156 47.791-53.556 83.381-93.49M15.571 106.58c24.573-26.731 51.242-55.917 85.656-96.243m-83.671 95.144c23.671-29.336 49.79-57.897 83.292-95.515M21.833 105.28c17.395-18.988 35.54-39.508 84.07-96.474M23.489 104.33c26.705-30.457 53.9-60.317 82.73-95.55m-78.436 96.167C53.802 78.087 76.86 50.043 111.687 9.27M28.13 104.284C56.328 73.451 85.172 39.08 111.39 9.27m-75.906 95.325c15.899-21.091 32.969-40.322 81.625-93.101M34.292 105.27c27.44-32.76 55.152-63.597 81.098-95.494m-77.724 95.646c25.345-27.67 48.59-55.269 83.39-94.682m-83.212 94.823c21.424-23.95 41.214-49.5 84.124-95.716M45.17 105.6c23.583-29.054 49.584-57.279 82.382-94.287m-83.186 93.545c27.115-30.506 51.88-61.04 82.213-93.824M49.88 105.116c34.482-38.222 66.35-76.558 80.099-95.492m-81.672 94.76c24.72-25.778 47.446-52.356 83.52-94.126M56.164 104.55c29.222-35.995 63.69-72.526 81.135-93.276m-81.657 92.695c20.89-24.372 40.947-48.463 80.267-93.81m-76.101 95.764c19.437-22.178 39.896-46.087 81.016-95.342m-81.801 93.59c16.716-19.616 33.275-38.932 83.58-93.252m-75.148 92.557c23.04-28.359 50.729-61.032 81.712-92.046m-82.726 93.9c16.646-19.699 31.815-39.179 81.99-94.952m-76.885 94.139C92.259 83.66 115.17 58.902 151.672 10.05M70.38 105.707c21.662-23.818 41.4-48.392 82.935-96.602m-75.565 95.09c24.486-30.991 52.21-64.595 79.6-92.333m-80.876 92.67c17.158-20.193 33.406-41.298 81.263-94.012m-77.825 95.834c22.456-28.811 45.94-52.287 82.412-96.1m-81.661 93.884c33.505-35.627 65.881-71.18 82.72-94.185m-76.56 97.104c28.818-34.316 57.38-67.95 81.937-95.625m-83.57 94.343c18.312-21.949 38.05-44.228 83.125-94.999m-75.87 92.894c29.317-31.274 56.51-61.66 83.86-94.475m-85.26 94.77c32.61-35.931 65.14-73.287 82.568-94.507M96.132 105.93c19.047-22.007 34.378-42.739 84.895-96.147m-83.631 96.075c30.624-35.977 61.096-70.923 81.146-96.162m-75.14 95.788c16.95-23.365 35.442-43.363 83.45-94.828m-84.262 93.393c32.144-36.95 65.666-73.473 82.61-94.576m-78.317 97.255c34.084-39.03 65.598-75.67 81.617-97.389m-80.185 96.364c21.383-23.88 42.102-48.039 81.368-96.515m-77.932 94.406c32.877-34.572 60.531-67.168 83.173-93.392m-81.674 94.412c29.886-33.511 60.503-69.015 81.481-93.902m-78.07 95.679c33.03-37.487 67.101-74.713 83.586-97.085m-83.022 95.03c22.012-23.629 43.086-48.674 83.67-94.815m-77.705 97.061c27.333-33.561 54.122-61.152 84.008-97.403m-84.325 95.06c33.981-38.061 65.794-75.226 84.311-94.49m-78.415 93.89c28.339-30.948 53.995-62.32 81.284-91.97m-82.263 92.972c24.195-25.28 47.335-52.631 84.438-94.319m-76.1 95.488c20.912-28.065 42.744-54.23 81.942-97.094m-83.878 96.148c20.466-22.02 38.981-45.28 82.736-94.85m-78.701 94.96c20.902-20.452 41.656-46.86 84.2-93.775m-83.36 93.166c32.488-34.374 61.88-68.375 82.552-94.786m-77.923 95.84c32.958-36.366 63.64-73.073 83.96-97.7m-81.822 97.071c27.533-31.488 55.996-64.506 80.887-95.988m-76.947 97.88c25.803-32.821 52.278-61.47 80.815-97.239m-80.087 95.668c22.34-27.202 46.176-54.76 81.396-94.474m-76.154 93.699c17.778-23.362 35.645-42.625 84.043-95.455m-84.47 96.794c19.663-22.744 38.867-44.247 83.396-95.413m-78.843 94.566c17.69-21.001 34.389-41.817 82.614-96.095m-81.553 96.61c30.844-35.923 63.267-71.723 82.854-96.14m-78.946 97.061c29.171-30.386 55.504-62.324 82.523-96.839m-81.314 96.113c29.4-34.885 58.322-66.889 82.74-94.38m-78.096 94.097c20.067-22.353 38.754-44.65 82.77-93.565m-81.878 93.693c20.672-25.007 41.892-50.708 79.995-93.53m-75.311 93.839c14.204-21.798 34.07-39.418 74.134-86.049m-74.078 84.112c28.952-30.91 57.305-63.51 75.306-85.354m-71.494 87.193c25.893-29.842 50.153-54.602 70.893-80.332m-69.95 79.153c24.269-28.999 50.246-56.267 71.829-81.35m-66.872 82.821c15.532-15.574 29.05-31.406 67.828-74.581m-65.529 72.76c20.588-24.215 41.866-47.376 63.193-73.61m-59.713 74.796c18.505-19.553 35.11-37.341 60-68.937m-59.393 69.166c20.122-24.116 39.858-48.06 60.27-69.667m-54.481 69.84c14.037-18.486 27.344-31.026 54.184-63.957m-55.891 64.623c14.8-14.738 27.54-30.12 55.625-63.941m-51.064 61.04c15.516-14.13 28.736-28.42 50.883-54.626m-47.931 55.688c13.9-16.787 30.097-35.005 48.51-56.748m-42.979 58.578c6.43-11.627 14.924-20.321 44.873-51.897m-47.309 50.049c15.006-15.177 30.28-31.926 46.425-50.842m-40.6 51.444c8.839-9.124 14.638-18.456 41.373-45.378m-39.658 45.487c7.12-9.195 17.057-19.356 38.277-45.096m-33.375 46.15c10.476-15.393 24.252-29.147 31.879-40.64m-32.068 40.477c11.496-15.856 24.453-31.145 33.225-38.822m-28.388 35.7c10.883-10.198 19.013-21.45 28.953-28.926m-28.648 30.166c7.554-7.357 13.398-16.531 28.455-32.47m-21.854 32.084c3.359-5.521 7.411-9.966 19.498-24.926m-21.592 25.43c8.225-9.32 18.743-20.68 23.468-26.398m-19.131 25.685c5.852-4.677 9.036-6.063 18.107-20.008m-17.302 20.404c4.12-3.073 8.388-7.39 18.424-19.125m-12.765 19.383c2.239-2.914 5.05-6.34 13.03-12.342m-12.183 13.781c3.963-5.583 7.64-10.102 11.2-14.324m-5.775 13.707c.69-1.558 2.393-4.973 5.113-7.574m-5.629 6.876c2.655-2.112 4.977-4.848 6.987-7.307" stroke="#82c91eaa" stroke-width=".5"/>
    <path d="M9.134 10.089c96.176-1.224 193.525-2.034 241.695-.1m-240.644-.56c78.227-.736 157.157-1.66 241.11-.193m-.055.088c-1.901 20.894-1.348 41.88 1.105 92.376m-.831-90.944c.374 22.037-.01 43.587-1.366 91.787m.413-1.11c-74.434 1.567-145.24 3.781-240.33 1.023m239.693.369c-50.15-1.862-99.636-1.246-239.996-.522m1.815.652C8.295 75.615 8.518 48.1 9.845 10.649m-.776 91.735c1.008-23.152.812-45.978 1.426-91.702" stroke="#000"/>
  </g>
</svg>
